<svg xmlns="http://www.w3.org/2000/svg" viewBox="0 0 14 17"><defs><style>.cls-1{fill:#fff;}</style></defs><title>shopping-bag</title><g id="Layer_2" data-name="Layer 2"><g id="Layer_1-2" data-name="Layer 1"><g id="MSP_Bag_Empty" data-name="MSP Bag Empty"><g id="MSP_Bag_Empty-2" data-name="MSP Bag Empty"><path class="cls-1" d="M1.5,3A1.5,1.5,0,0,0,0,4.5v11A1.5,1.5,0,0,0,1.5,17h11A1.5,1.5,0,0,0,14,15.5V4.5A1.5,1.5,0,0,0,12.5,3ZM13,15.5a.5.5,0,0,1-.5.5H1.5a.5.5,0,0,1-.5-.5V4.5A.5.5,0,0,1,1.5,4h11a.5.5,0,0,1,.5.5Z"/></g><path class="cls-1" d="M10.75,4H3.25V3.5A3.65,3.65,0,0,1,7,0a3.65,3.65,0,0,1,3.75,3.5ZM4.3,3H9.7A2.72,2.72,0,0,0,7,1,2.72,2.72,0,0,0,4.3,3Z"/></g></g></g></svg>