<svg xmlns="http://www.w3.org/2000/svg" viewBox="0 0 258.44 319.4"><defs><style>.cls-1{fill:#fff;stroke:#000;stroke-linejoin:bevel;stroke-width:0.5px;}</style></defs><title>Asset 76</title><g id="Layer_2" data-name="Layer 2"><g id="Layer_1-2" data-name="Layer 1"><polygon class="cls-1" points="0.25 298.12 21.28 319.15 21.68 319.14 139.73 319.14 118.71 298.12 1.1 298.12 0.25 298.12"/><line class="cls-1" x1="137.54" y1="319.15" x2="116.52" y2="298.12"/><line class="cls-1" x1="139.73" y1="319.15" x2="118.71" y2="298.12"/><line class="cls-1" x1="135.35" y1="319.15" x2="114.33" y2="298.12"/><line class="cls-1" x1="130.97" y1="319.15" x2="109.95" y2="298.12"/><line class="cls-1" x1="133.16" y1="319.15" x2="112.14" y2="298.12"/><line class="cls-1" x1="128.78" y1="319.15" x2="107.76" y2="298.12"/><line class="cls-1" x1="124.4" y1="319.15" x2="103.38" y2="298.12"/><line class="cls-1" x1="126.59" y1="319.15" x2="105.57" y2="298.12"/><line class="cls-1" x1="122.21" y1="319.15" x2="101.19" y2="298.12"/><line class="cls-1" x1="117.83" y1="319.15" x2="96.81" y2="298.12"/><line class="cls-1" x1="120.02" y1="319.15" x2="99" y2="298.12"/><line class="cls-1" x1="115.64" y1="319.15" x2="94.62" y2="298.12"/><line class="cls-1" x1="111.26" y1="319.15" x2="90.24" y2="298.12"/><line class="cls-1" x1="113.45" y1="319.15" x2="92.43" y2="298.12"/><line class="cls-1" x1="109.07" y1="319.15" x2="88.05" y2="298.12"/><line class="cls-1" x1="104.69" y1="319.15" x2="83.67" y2="298.12"/><line class="cls-1" x1="106.88" y1="319.15" x2="85.86" y2="298.12"/><line class="cls-1" x1="102.5" y1="319.15" x2="81.48" y2="298.12"/><line class="cls-1" x1="98.12" y1="319.15" x2="77.1" y2="298.12"/><line class="cls-1" x1="100.31" y1="319.15" x2="79.29" y2="298.12"/><line class="cls-1" x1="95.93" y1="319.15" x2="74.9" y2="298.12"/><line class="cls-1" x1="91.55" y1="319.15" x2="70.52" y2="298.12"/><line class="cls-1" x1="93.74" y1="319.15" x2="72.71" y2="298.12"/><line class="cls-1" x1="89.36" y1="319.15" x2="68.33" y2="298.12"/><line class="cls-1" x1="84.98" y1="319.15" x2="63.95" y2="298.12"/><line class="cls-1" x1="87.17" y1="319.15" x2="66.14" y2="298.12"/><line class="cls-1" x1="82.79" y1="319.15" x2="61.76" y2="298.12"/><line class="cls-1" x1="78.41" y1="319.15" x2="57.38" y2="298.12"/><line class="cls-1" x1="80.6" y1="319.15" x2="59.57" y2="298.12"/><line class="cls-1" x1="76.22" y1="319.15" x2="55.19" y2="298.12"/><line class="cls-1" x1="71.84" y1="319.15" x2="50.81" y2="298.12"/><line class="cls-1" x1="74.03" y1="319.15" x2="53" y2="298.12"/><line class="cls-1" x1="69.65" y1="319.15" x2="48.62" y2="298.12"/><line class="cls-1" x1="65.27" y1="319.15" x2="44.24" y2="298.12"/><line class="cls-1" x1="67.46" y1="319.15" x2="46.43" y2="298.12"/><line class="cls-1" x1="63.08" y1="319.15" x2="42.05" y2="298.12"/><line class="cls-1" x1="58.7" y1="319.15" x2="37.67" y2="298.12"/><line class="cls-1" x1="60.89" y1="319.15" x2="39.86" y2="298.12"/><line class="cls-1" x1="56.51" y1="319.15" x2="35.48" y2="298.12"/><line class="cls-1" x1="52.13" y1="319.15" x2="31.1" y2="298.12"/><line class="cls-1" x1="54.32" y1="319.15" x2="33.29" y2="298.12"/><line class="cls-1" x1="49.94" y1="319.15" x2="28.91" y2="298.12"/><line class="cls-1" x1="45.56" y1="319.15" x2="24.53" y2="298.12"/><line class="cls-1" x1="47.75" y1="319.15" x2="26.72" y2="298.12"/><line class="cls-1" x1="43.37" y1="319.15" x2="22.34" y2="298.12"/><line class="cls-1" x1="38.99" y1="319.15" x2="17.96" y2="298.12"/><line class="cls-1" x1="41.18" y1="319.15" x2="20.15" y2="298.12"/><line class="cls-1" x1="36.8" y1="319.15" x2="15.77" y2="298.12"/><line class="cls-1" x1="32.42" y1="319.15" x2="11.39" y2="298.12"/><line class="cls-1" x1="34.61" y1="319.15" x2="13.58" y2="298.12"/><line class="cls-1" x1="30.23" y1="319.15" x2="9.2" y2="298.12"/><line class="cls-1" x1="25.84" y1="319.15" x2="4.82" y2="298.12"/><line class="cls-1" x1="28.03" y1="319.15" x2="7.01" y2="298.12"/><line class="cls-1" x1="23.65" y1="319.15" x2="2.63" y2="298.12"/><polygon class="cls-1" points="118.71 149.19 139.73 170.21 139.73 201.09 139.73 319.14 118.7 298.12 118.7 180.51 118.71 149.19"/><line class="cls-1" x1="139.73" y1="316.95" x2="118.71" y2="295.93"/><line class="cls-1" x1="139.73" y1="319.15" x2="118.71" y2="298.12"/><line class="cls-1" x1="139.73" y1="314.76" x2="118.71" y2="293.74"/><line class="cls-1" x1="139.73" y1="310.38" x2="118.71" y2="289.36"/><line class="cls-1" x1="139.73" y1="312.57" x2="118.71" y2="291.55"/><line class="cls-1" x1="139.73" y1="308.19" x2="118.71" y2="287.17"/><line class="cls-1" x1="139.73" y1="303.81" x2="118.71" y2="282.79"/><line class="cls-1" x1="139.73" y1="306" x2="118.71" y2="284.98"/><line class="cls-1" x1="139.73" y1="301.62" x2="118.71" y2="280.6"/><line class="cls-1" x1="139.73" y1="297.24" x2="118.71" y2="276.22"/><line class="cls-1" x1="139.73" y1="299.43" x2="118.71" y2="278.41"/><line class="cls-1" x1="139.73" y1="295.05" x2="118.71" y2="274.03"/><line class="cls-1" x1="139.73" y1="290.67" x2="118.71" y2="269.65"/><line class="cls-1" x1="139.73" y1="292.86" x2="118.71" y2="271.84"/><line class="cls-1" x1="139.73" y1="288.48" x2="118.71" y2="267.46"/><line class="cls-1" x1="139.73" y1="284.1" x2="118.71" y2="263.08"/><line class="cls-1" x1="139.73" y1="286.29" x2="118.71" y2="265.27"/><line class="cls-1" x1="139.73" y1="281.91" x2="118.71" y2="260.89"/><line class="cls-1" x1="139.73" y1="277.53" x2="118.71" y2="256.51"/><line class="cls-1" x1="139.73" y1="279.72" x2="118.71" y2="258.7"/><line class="cls-1" x1="139.73" y1="275.34" x2="118.71" y2="254.32"/><line class="cls-1" x1="139.73" y1="270.96" x2="118.71" y2="249.94"/><line class="cls-1" x1="139.73" y1="273.15" x2="118.71" y2="252.13"/><line class="cls-1" x1="139.73" y1="268.77" x2="118.71" y2="247.75"/><line class="cls-1" x1="139.73" y1="264.39" x2="118.71" y2="243.36"/><line class="cls-1" x1="139.73" y1="266.58" x2="118.71" y2="245.55"/><line class="cls-1" x1="139.73" y1="262.2" x2="118.71" y2="241.17"/><line class="cls-1" x1="139.73" y1="257.82" x2="118.71" y2="236.79"/><line class="cls-1" x1="139.73" y1="260.01" x2="118.71" y2="238.98"/><line class="cls-1" x1="139.73" y1="255.63" x2="118.71" y2="234.6"/><line class="cls-1" x1="139.73" y1="251.25" x2="118.71" y2="230.22"/><line class="cls-1" x1="139.73" y1="253.44" x2="118.71" y2="232.41"/><line class="cls-1" x1="139.73" y1="249.06" x2="118.71" y2="228.03"/><line class="cls-1" x1="139.73" y1="244.68" x2="118.71" y2="223.65"/><line class="cls-1" x1="139.73" y1="246.87" x2="118.71" y2="225.84"/><line class="cls-1" x1="139.73" y1="242.49" x2="118.71" y2="221.46"/><line class="cls-1" x1="139.73" y1="238.11" x2="118.71" y2="217.08"/><line class="cls-1" x1="139.73" y1="240.3" x2="118.71" y2="219.27"/><line class="cls-1" x1="139.73" y1="235.92" x2="118.71" y2="214.89"/><line class="cls-1" x1="139.73" y1="231.54" x2="118.71" y2="210.51"/><line class="cls-1" x1="139.73" y1="233.73" x2="118.71" y2="212.7"/><line class="cls-1" x1="139.73" y1="229.35" x2="118.71" y2="208.32"/><line class="cls-1" x1="139.73" y1="224.97" x2="118.71" y2="203.94"/><line class="cls-1" x1="139.73" y1="227.16" x2="118.71" y2="206.13"/><line class="cls-1" x1="139.73" y1="222.78" x2="118.71" y2="201.75"/><line class="cls-1" x1="139.73" y1="218.4" x2="118.71" y2="197.37"/><line class="cls-1" x1="139.73" y1="220.59" x2="118.71" y2="199.56"/><line class="cls-1" x1="139.73" y1="216.21" x2="118.71" y2="195.18"/><line class="cls-1" x1="139.73" y1="211.83" x2="118.71" y2="190.8"/><line class="cls-1" x1="139.73" y1="214.02" x2="118.71" y2="192.99"/><line class="cls-1" x1="139.73" y1="209.64" x2="118.71" y2="188.61"/><line class="cls-1" x1="139.73" y1="205.26" x2="118.71" y2="184.23"/><line class="cls-1" x1="139.73" y1="207.45" x2="118.71" y2="186.42"/><line class="cls-1" x1="139.73" y1="203.07" x2="118.71" y2="182.04"/><rect class="cls-1" x="-14.99" y="164.43" width="148.94" height="118.46" transform="translate(283.13 164.18) rotate(90)"/><line class="cls-1" x1="139.73" y1="198.68" x2="118.71" y2="177.66"/><line class="cls-1" x1="139.73" y1="200.88" x2="118.71" y2="179.85"/><line class="cls-1" x1="139.73" y1="196.49" x2="118.71" y2="175.47"/><line class="cls-1" x1="139.73" y1="192.11" x2="118.71" y2="171.09"/><line class="cls-1" x1="139.73" y1="194.3" x2="118.71" y2="173.28"/><line class="cls-1" x1="139.73" y1="189.92" x2="118.71" y2="168.9"/><line class="cls-1" x1="139.73" y1="185.54" x2="118.71" y2="164.52"/><line class="cls-1" x1="139.73" y1="187.73" x2="118.71" y2="166.71"/><line class="cls-1" x1="139.73" y1="183.35" x2="118.71" y2="162.33"/><line class="cls-1" x1="139.73" y1="178.97" x2="118.71" y2="157.95"/><line class="cls-1" x1="139.73" y1="181.16" x2="118.71" y2="160.14"/><line class="cls-1" x1="139.73" y1="176.78" x2="118.71" y2="155.76"/><line class="cls-1" x1="139.73" y1="172.4" x2="118.71" y2="151.38"/><line class="cls-1" x1="139.73" y1="174.59" x2="118.71" y2="153.57"/><line class="cls-1" x1="139.73" y1="170.21" x2="118.71" y2="149.19"/><polygon class="cls-1" points="118.7 149.19 139.73 170.21 140.14 170.2 258.19 170.2 237.16 149.18 119.55 149.18 118.7 149.19"/><line class="cls-1" x1="256" y1="170.21" x2="234.97" y2="149.19"/><line class="cls-1" x1="258.19" y1="170.21" x2="237.16" y2="149.19"/><line class="cls-1" x1="253.81" y1="170.21" x2="232.78" y2="149.19"/><line class="cls-1" x1="249.43" y1="170.21" x2="228.4" y2="149.19"/><line class="cls-1" x1="251.62" y1="170.21" x2="230.59" y2="149.19"/><line class="cls-1" x1="247.24" y1="170.21" x2="226.21" y2="149.19"/><line class="cls-1" x1="242.86" y1="170.21" x2="221.83" y2="149.19"/><line class="cls-1" x1="245.05" y1="170.21" x2="224.02" y2="149.19"/><line class="cls-1" x1="240.67" y1="170.21" x2="219.64" y2="149.19"/><line class="cls-1" x1="236.29" y1="170.21" x2="215.26" y2="149.19"/><line class="cls-1" x1="238.48" y1="170.21" x2="217.45" y2="149.19"/><line class="cls-1" x1="234.1" y1="170.21" x2="213.07" y2="149.19"/><line class="cls-1" x1="229.71" y1="170.21" x2="208.69" y2="149.19"/><line class="cls-1" x1="231.9" y1="170.21" x2="210.88" y2="149.19"/><line class="cls-1" x1="227.52" y1="170.21" x2="206.5" y2="149.19"/><line class="cls-1" x1="223.14" y1="170.21" x2="202.12" y2="149.19"/><line class="cls-1" x1="225.33" y1="170.21" x2="204.31" y2="149.19"/><line class="cls-1" x1="220.95" y1="170.21" x2="199.93" y2="149.19"/><line class="cls-1" x1="216.57" y1="170.21" x2="195.55" y2="149.19"/><line class="cls-1" x1="218.76" y1="170.21" x2="197.74" y2="149.19"/><line class="cls-1" x1="214.38" y1="170.21" x2="193.36" y2="149.19"/><line class="cls-1" x1="210" y1="170.21" x2="188.98" y2="149.19"/><line class="cls-1" x1="212.19" y1="170.21" x2="191.17" y2="149.19"/><line class="cls-1" x1="207.81" y1="170.21" x2="186.79" y2="149.19"/><line class="cls-1" x1="203.43" y1="170.21" x2="182.41" y2="149.19"/><line class="cls-1" x1="205.62" y1="170.21" x2="184.6" y2="149.19"/><line class="cls-1" x1="201.24" y1="170.21" x2="180.22" y2="149.19"/><line class="cls-1" x1="196.86" y1="170.21" x2="175.84" y2="149.19"/><line class="cls-1" x1="199.05" y1="170.21" x2="178.03" y2="149.19"/><line class="cls-1" x1="194.67" y1="170.21" x2="173.65" y2="149.19"/><line class="cls-1" x1="190.29" y1="170.21" x2="169.27" y2="149.19"/><line class="cls-1" x1="192.48" y1="170.21" x2="171.46" y2="149.19"/><line class="cls-1" x1="188.1" y1="170.21" x2="167.08" y2="149.19"/><line class="cls-1" x1="183.72" y1="170.21" x2="162.69" y2="149.19"/><line class="cls-1" x1="185.91" y1="170.21" x2="164.89" y2="149.19"/><line class="cls-1" x1="181.53" y1="170.21" x2="160.5" y2="149.19"/><line class="cls-1" x1="177.15" y1="170.21" x2="156.12" y2="149.19"/><line class="cls-1" x1="179.34" y1="170.21" x2="158.31" y2="149.19"/><line class="cls-1" x1="174.96" y1="170.21" x2="153.93" y2="149.19"/><line class="cls-1" x1="170.58" y1="170.21" x2="149.55" y2="149.19"/><line class="cls-1" x1="172.77" y1="170.21" x2="151.74" y2="149.19"/><line class="cls-1" x1="168.39" y1="170.21" x2="147.36" y2="149.19"/><line class="cls-1" x1="164.01" y1="170.21" x2="142.98" y2="149.19"/><line class="cls-1" x1="166.2" y1="170.21" x2="145.17" y2="149.19"/><line class="cls-1" x1="161.82" y1="170.21" x2="140.79" y2="149.19"/><line class="cls-1" x1="157.44" y1="170.21" x2="136.41" y2="149.19"/><line class="cls-1" x1="159.63" y1="170.21" x2="138.6" y2="149.19"/><line class="cls-1" x1="155.25" y1="170.21" x2="134.22" y2="149.19"/><line class="cls-1" x1="150.87" y1="170.21" x2="129.84" y2="149.19"/><line class="cls-1" x1="153.06" y1="170.21" x2="132.03" y2="149.19"/><line class="cls-1" x1="148.68" y1="170.21" x2="127.65" y2="149.19"/><line class="cls-1" x1="144.3" y1="170.21" x2="123.27" y2="149.19"/><line class="cls-1" x1="146.49" y1="170.21" x2="125.46" y2="149.19"/><line class="cls-1" x1="142.11" y1="170.21" x2="121.08" y2="149.19"/><polygon class="cls-1" points="237.16 0.25 258.19 21.28 258.18 52.16 258.18 170.21 237.15 149.18 237.15 31.57 237.16 0.25"/><line class="cls-1" x1="258.19" y1="168.02" x2="237.16" y2="146.99"/><line class="cls-1" x1="258.19" y1="170.21" x2="237.16" y2="149.18"/><line class="cls-1" x1="258.19" y1="165.83" x2="237.16" y2="144.8"/><line class="cls-1" x1="258.19" y1="161.45" x2="237.16" y2="140.42"/><line class="cls-1" x1="258.19" y1="163.64" x2="237.16" y2="142.61"/><line class="cls-1" x1="258.19" y1="159.26" x2="237.16" y2="138.23"/><line class="cls-1" x1="258.19" y1="154.88" x2="237.16" y2="133.85"/><line class="cls-1" x1="258.19" y1="157.07" x2="237.16" y2="136.04"/><line class="cls-1" x1="258.19" y1="152.69" x2="237.16" y2="131.66"/><line class="cls-1" x1="258.19" y1="148.31" x2="237.16" y2="127.28"/><line class="cls-1" x1="258.19" y1="150.5" x2="237.16" y2="129.47"/><line class="cls-1" x1="258.19" y1="146.12" x2="237.16" y2="125.09"/><line class="cls-1" x1="258.19" y1="141.74" x2="237.16" y2="120.71"/><line class="cls-1" x1="258.19" y1="143.93" x2="237.16" y2="122.9"/><line class="cls-1" x1="258.19" y1="139.55" x2="237.16" y2="118.52"/><line class="cls-1" x1="258.19" y1="135.17" x2="237.16" y2="114.14"/><line class="cls-1" x1="258.19" y1="137.36" x2="237.16" y2="116.33"/><line class="cls-1" x1="258.19" y1="132.98" x2="237.16" y2="111.95"/><line class="cls-1" x1="258.19" y1="128.59" x2="237.16" y2="107.57"/><line class="cls-1" x1="258.19" y1="130.79" x2="237.16" y2="109.76"/><line class="cls-1" x1="258.19" y1="126.4" x2="237.16" y2="105.38"/><line class="cls-1" x1="258.19" y1="122.02" x2="237.16" y2="101"/><line class="cls-1" x1="258.19" y1="124.21" x2="237.16" y2="103.19"/><line class="cls-1" x1="258.19" y1="119.83" x2="237.16" y2="98.81"/><line class="cls-1" x1="258.19" y1="115.45" x2="237.16" y2="94.43"/><line class="cls-1" x1="258.19" y1="117.64" x2="237.16" y2="96.62"/><line class="cls-1" x1="258.19" y1="113.26" x2="237.16" y2="92.24"/><line class="cls-1" x1="258.19" y1="108.88" x2="237.16" y2="87.86"/><line class="cls-1" x1="258.19" y1="111.07" x2="237.16" y2="90.05"/><line class="cls-1" x1="258.19" y1="106.69" x2="237.16" y2="85.67"/><line class="cls-1" x1="258.19" y1="102.31" x2="237.16" y2="81.29"/><line class="cls-1" x1="258.19" y1="104.5" x2="237.16" y2="83.48"/><line class="cls-1" x1="258.19" y1="100.12" x2="237.16" y2="79.1"/><line class="cls-1" x1="258.19" y1="95.74" x2="237.16" y2="74.72"/><line class="cls-1" x1="258.19" y1="97.93" x2="237.16" y2="76.91"/><line class="cls-1" x1="258.19" y1="93.55" x2="237.16" y2="72.53"/><line class="cls-1" x1="258.19" y1="89.17" x2="237.16" y2="68.15"/><line class="cls-1" x1="258.19" y1="91.36" x2="237.16" y2="70.34"/><line class="cls-1" x1="258.19" y1="86.98" x2="237.16" y2="65.96"/><line class="cls-1" x1="258.19" y1="82.6" x2="237.16" y2="61.58"/><line class="cls-1" x1="258.19" y1="84.79" x2="237.16" y2="63.77"/><line class="cls-1" x1="258.19" y1="80.41" x2="237.16" y2="59.39"/><line class="cls-1" x1="258.19" y1="76.03" x2="237.16" y2="55"/><line class="cls-1" x1="258.19" y1="78.22" x2="237.16" y2="57.19"/><line class="cls-1" x1="258.19" y1="73.84" x2="237.16" y2="52.81"/><line class="cls-1" x1="258.19" y1="69.46" x2="237.16" y2="48.43"/><line class="cls-1" x1="258.19" y1="71.65" x2="237.16" y2="50.62"/><line class="cls-1" x1="258.19" y1="67.27" x2="237.16" y2="46.24"/><line class="cls-1" x1="258.19" y1="62.89" x2="237.16" y2="41.86"/><line class="cls-1" x1="258.19" y1="65.08" x2="237.16" y2="44.05"/><line class="cls-1" x1="258.19" y1="60.7" x2="237.16" y2="39.67"/><line class="cls-1" x1="258.19" y1="56.32" x2="237.16" y2="35.29"/><line class="cls-1" x1="258.19" y1="58.51" x2="237.16" y2="37.48"/><line class="cls-1" x1="258.19" y1="54.13" x2="237.16" y2="33.1"/><rect class="cls-1" x="103.46" y="15.49" width="148.94" height="118.46" transform="translate(252.65 -103.21) rotate(90)"/><line class="cls-1" x1="258.19" y1="49.75" x2="237.16" y2="28.72"/><line class="cls-1" x1="258.19" y1="51.94" x2="237.16" y2="30.91"/><line class="cls-1" x1="258.19" y1="47.56" x2="237.16" y2="26.53"/><line class="cls-1" x1="258.19" y1="43.18" x2="237.16" y2="22.15"/><line class="cls-1" x1="258.19" y1="45.37" x2="237.16" y2="24.34"/><line class="cls-1" x1="258.19" y1="40.99" x2="237.16" y2="19.96"/><line class="cls-1" x1="258.19" y1="36.61" x2="237.16" y2="15.58"/><line class="cls-1" x1="258.19" y1="38.8" x2="237.16" y2="17.77"/><line class="cls-1" x1="258.19" y1="34.42" x2="237.16" y2="13.39"/><line class="cls-1" x1="258.19" y1="30.04" x2="237.16" y2="9.01"/><line class="cls-1" x1="258.19" y1="32.23" x2="237.16" y2="11.2"/><line class="cls-1" x1="258.19" y1="27.85" x2="237.16" y2="6.82"/><line class="cls-1" x1="258.19" y1="23.47" x2="237.16" y2="2.44"/><line class="cls-1" x1="258.19" y1="25.66" x2="237.16" y2="4.63"/><line class="cls-1" x1="258.19" y1="21.28" x2="237.16" y2="0.25"/></g></g></svg>